<svg width="132.569946" height="34.000000" viewBox="0 0 132.57 34" fill="none" xmlns="http://www.w3.org/2000/svg" xmlns:xlink="http://www.w3.org/1999/xlink">
	<desc>
			Created with Pixso.
	</desc>
	<defs/>
	<path id="Vector" d="M15.52 1.39L5.44 4.47L5.44 4.47C5.35 4.49 5.26 4.5 5.17 4.49C5.08 4.49 4.99 4.46 4.91 4.42C4.84 4.38 4.77 4.32 4.71 4.25C4.65 4.18 4.61 4.1 4.58 4.01C4.56 3.93 4.55 3.84 4.56 3.75C4.57 3.66 4.59 3.57 4.63 3.49C4.68 3.42 4.73 3.35 4.8 3.29C4.87 3.23 4.95 3.19 5.04 3.16L15.32 0.02C15.45 -0.01 15.59 -0.01 15.72 0.02L26.23 3.23C26.4 3.29 26.54 3.4 26.63 3.56C26.71 3.72 26.73 3.91 26.68 4.08C26.62 4.25 26.51 4.4 26.35 4.48C26.19 4.57 26 4.59 25.83 4.54L15.52 1.39ZM0.21 6.07L0.38 5.04C0.38 4.99 0.39 4.94 0.41 4.88C0.44 4.8 0.48 4.72 0.54 4.65C0.6 4.58 0.67 4.52 0.75 4.48C0.83 4.44 0.91 4.42 1 4.41C1.09 4.4 1.18 4.41 1.27 4.44C1.35 4.47 1.43 4.52 1.5 4.57C1.56 4.62 1.6 4.68 1.64 4.74C1.65 4.76 1.66 4.78 1.67 4.8L7.73 16.62L23.45 16.62C23.53 16.62 23.6 16.63 23.66 16.65L23.73 16.52L29.37 4.79C29.45 4.63 29.59 4.51 29.75 4.45C29.78 4.44 29.81 4.44 29.83 4.43C29.85 4.43 29.86 4.43 29.87 4.42C29.96 4.41 30.05 4.41 30.14 4.43C30.23 4.45 30.31 4.49 30.38 4.54C30.45 4.6 30.52 4.66 30.56 4.74C30.61 4.81 30.64 4.9 30.66 4.99L30.83 6.07C30.99 7.15 31.06 8.24 31.05 9.33C31.05 11.69 30.76 14.03 30.2 16.32C29.44 19.45 28.11 22.4 26.28 25.05C24.16 28.09 21.09 31.09 16.68 33.46L15.85 33.91C15.75 33.97 15.64 34 15.52 34C15.45 34 15.37 33.98 15.3 33.96C15.25 33.94 15.2 33.92 15.16 33.89L14.36 33.46C9.95 31.09 6.88 28.09 4.77 25.05C2.94 22.4 1.61 19.44 0.84 16.32C0.28 14.03 0 11.68 0 9.33C-0.02 8.24 0.06 7.15 0.21 6.07ZM22.95 17.97L8.42 17.97L15.54 31.85L22.95 17.97ZM1.35 9.33C1.35 8.65 1.37 7.98 1.43 7.31L13.9 31.64C10.27 29.48 7.7 26.89 5.88 24.27C4.14 21.76 2.88 18.95 2.16 15.99C1.63 13.81 1.36 11.57 1.35 9.33ZM25.16 24.27C23.35 26.88 20.8 29.45 17.2 31.6L24.93 17.14L24.95 17.12L29.61 7.41C29.67 8.05 29.69 8.69 29.68 9.33C29.68 11.57 29.41 13.81 28.88 15.99C28.15 18.95 26.89 21.76 25.16 24.27Z" fill="#FFFFFF" fill-opacity="1.000000" fill-rule="evenodd"/>
	<path id="Vector" d="M68.83 19.63L68.83 18.35L58.49 18.35L58.49 29.69L68.83 29.69L68.83 28.41L59.77 28.41L59.77 24.66L67.06 24.66L67.06 23.37L59.77 23.37L59.77 19.63L68.83 19.63ZM105.6 18.35L94.27 18.35L94.27 19.63L99.31 19.63L99.31 29.69L100.59 29.69L100.59 19.63L105.6 19.63L105.6 18.35ZM112.47 18.35L112.47 29.69L113.75 29.69L113.75 18.35L112.47 18.35ZM132.39 18.35L130.75 18.35L126.54 23.37L122.89 23.37L122.89 18.35L121.6 18.35L121.6 29.69L122.89 29.69L122.89 24.66L126.54 24.66L130.75 29.69L132.41 29.69L127.66 24.02L132.39 18.35ZM51.16 19.63L41.75 19.63C41.58 19.63 41.43 19.69 41.31 19.81C41.2 19.92 41.13 20.08 41.13 20.24L41.13 27.8C41.13 27.96 41.2 28.12 41.31 28.23C41.43 28.35 41.58 28.41 41.75 28.41L51.16 28.41L51.16 29.69L41.75 29.69C41.5 29.69 41.25 29.64 41.02 29.55C40.79 29.46 40.58 29.32 40.41 29.14C40.23 28.97 40.09 28.76 40 28.53C39.91 28.3 39.86 28.05 39.86 27.8L39.86 20.25C39.86 20 39.91 19.75 40 19.52C40.09 19.29 40.23 19.09 40.41 18.91C40.58 18.73 40.79 18.6 41.02 18.5C41.25 18.41 41.5 18.36 41.75 18.36L51.16 18.36L51.16 19.63ZM87.5 23.58L87.5 20.26L87.49 20.26C87.49 20.01 87.45 19.76 87.35 19.53C87.26 19.3 87.12 19.1 86.94 18.92C86.77 18.74 86.56 18.61 86.33 18.51C86.1 18.42 85.85 18.37 85.6 18.37L76.16 18.37L76.16 29.69L77.44 29.69L77.44 25.4C77.64 25.44 77.85 25.46 78.05 25.47L82.21 25.47L85.76 29.69L87.44 29.69L83.88 25.47L85.61 25.47C85.86 25.47 86.11 25.42 86.34 25.33C86.57 25.23 86.78 25.09 86.95 24.92C87.13 24.74 87.27 24.53 87.36 24.3C87.46 24.07 87.5 23.83 87.5 23.58ZM85.61 24.18L78.06 24.18C77.98 24.18 77.9 24.16 77.82 24.13C77.75 24.11 77.68 24.06 77.62 24.01C77.57 23.95 77.52 23.89 77.49 23.81C77.46 23.74 77.44 23.66 77.44 23.58L77.44 20.26C77.44 20.1 77.51 19.94 77.62 19.82C77.74 19.71 77.9 19.64 78.06 19.64L85.61 19.64C85.69 19.64 85.77 19.66 85.85 19.69C85.92 19.72 85.99 19.77 86.04 19.82C86.1 19.88 86.14 19.95 86.17 20.02C86.2 20.1 86.21 20.18 86.21 20.26L86.21 23.58C86.21 23.66 86.2 23.74 86.17 23.81C86.14 23.88 86.1 23.95 86.04 24C85.98 24.06 85.92 24.1 85.84 24.13C85.77 24.16 85.69 24.18 85.61 24.18Z" fill="#FFFFFF" fill-opacity="1.000000" fill-rule="evenodd"/>
	<path id="AUDITED BY" d="M54.42 7.06L57.54 7.06L58.21 8.55L58.84 8.55L56.28 2.95L55.69 2.95L53.13 8.55L53.75 8.55L54.42 7.06ZM62.57 8.16Q63.14 8.6 64.06 8.6Q64.98 8.6 65.56 8.15Q65.66 8.07 65.75 7.98Q65.76 7.97 65.77 7.96Q66.36 7.33 66.36 6.16L66.36 2.95L65.78 2.95L65.78 6.14Q65.78 7.11 65.34 7.59Q65.28 7.66 65.21 7.71Q64.79 8.07 64.06 8.07Q63.35 8.07 62.93 7.72Q62.85 7.66 62.79 7.59Q62.35 7.11 62.35 6.14L62.35 2.95L61.76 2.95L61.76 6.16Q61.76 7.33 62.34 7.95Q62.35 7.97 62.36 7.98Q62.46 8.08 62.57 8.16ZM72.58 2.95L70.3 2.95L70.3 8.55L72.58 8.55Q73.47 8.55 74.15 8.2Q74.58 7.97 74.89 7.63Q75.07 7.44 75.2 7.2Q75.26 7.1 75.31 7Q75.58 6.44 75.58 5.75Q75.58 5.07 75.32 4.52Q75.27 4.41 75.2 4.3Q75.06 4.06 74.88 3.86Q74.57 3.53 74.15 3.31Q73.47 2.95 72.58 2.95ZM79.66 2.95L79.07 2.95L79.07 8.55L79.66 8.55L79.66 2.95ZM82.76 3.46L84.73 3.46L84.73 8.55L85.33 8.55L85.33 3.46L87.29 3.46L87.29 2.95L82.76 2.95L82.76 3.46ZM94.36 8.55L94.36 8.04L90.99 8.04L90.99 5.96L93.89 5.96L93.89 5.46L90.99 5.46L90.99 3.46L94.24 3.46L94.24 2.95L90.4 2.95L90.4 8.55L94.36 8.55ZM100.19 2.95L97.91 2.95L97.91 8.55L100.19 8.55Q101.08 8.55 101.76 8.2Q102.19 7.97 102.5 7.63Q102.68 7.44 102.81 7.2Q102.87 7.1 102.92 7Q103.19 6.44 103.19 5.75Q103.19 5.07 102.93 4.52Q102.88 4.41 102.81 4.3Q102.67 4.06 102.49 3.86Q102.18 3.53 101.76 3.31Q101.08 2.95 100.19 2.95ZM115.27 6.1Q114.98 5.78 114.46 5.66Q114.77 5.54 114.97 5.32Q115.04 5.26 115.09 5.18Q115.11 5.15 115.13 5.12Q115.32 4.81 115.32 4.39Q115.32 3.99 115.14 3.69Q115.01 3.48 114.8 3.33Q114.29 2.95 113.35 2.95L110.93 2.95L110.93 8.55L113.51 8.55Q114.55 8.55 115.08 8.17Q115.29 8.01 115.42 7.81Q115.61 7.49 115.61 7.06Q115.61 6.57 115.39 6.24Q115.35 6.19 115.31 6.14Q115.29 6.12 115.27 6.1ZM120.93 8.55L120.93 6.62L123.17 2.95L122.57 2.95L120.65 6.1L118.73 2.95L118.1 2.95L120.34 6.62L120.34 8.55L120.93 8.55ZM111.53 5.47L111.53 3.44L113.31 3.44Q113.99 3.44 114.36 3.7Q114.5 3.8 114.59 3.94Q114.72 4.15 114.72 4.46Q114.72 4.76 114.59 4.98Q114.5 5.11 114.36 5.21Q113.99 5.47 113.31 5.47L111.53 5.47ZM73.84 7.75Q73.29 8.04 72.55 8.04L70.89 8.04L70.89 3.46L72.55 3.46Q73.29 3.46 73.84 3.76Q74.19 3.94 74.45 4.23Q74.58 4.38 74.69 4.56Q74.72 4.62 74.75 4.67Q75 5.15 75 5.75Q75 6.35 74.76 6.82Q74.73 6.88 74.69 6.94Q74.59 7.12 74.45 7.27Q74.2 7.56 73.84 7.75ZM101.45 7.75Q100.89 8.04 100.16 8.04L98.5 8.04L98.5 3.46L100.16 3.46Q100.89 3.46 101.45 3.76Q101.8 3.94 102.05 4.23Q102.19 4.38 102.3 4.56Q102.33 4.62 102.36 4.67Q102.61 5.15 102.61 5.75Q102.61 6.35 102.36 6.82Q102.33 6.88 102.3 6.94Q102.19 7.12 102.06 7.27Q101.8 7.56 101.45 7.75ZM55.98 3.57L57.32 6.58L54.64 6.58L55.98 3.57ZM114.64 7.81Q114.25 8.06 113.5 8.06L111.53 8.06L111.53 5.96L113.5 5.96Q114.53 5.96 114.86 6.44Q115.02 6.67 115.02 7.01Q115.02 7.38 114.84 7.61Q114.76 7.73 114.64 7.81Z" fill="#FFFFFF" fill-opacity="1.000000" fill-rule="evenodd"/>
	<path id="Vector" d="M43.45 1.88L46.9 2.75C47.09 2.79 47.23 2.99 47.23 3.21L47.23 7.92C47.23 8.87 46.81 9.76 46.11 10.28L43.45 12.28L40.8 10.28C40.09 9.76 39.67 8.87 39.67 7.93L39.67 3.21C39.67 2.99 39.81 2.79 40 2.75L43.45 1.88Z" fill="#7156FB" fill-opacity="1.000000" fill-rule="nonzero"/>
	<path id="Vector 12" d="M41.56 6.76L43.11 8.21L45.81 5.66" stroke="#FFFFFF" stroke-opacity="1.000000" stroke-width="1.336500"/>
</svg>
